HIERARCHY
ROOT Hip
{
	OFFSET 0 1.131 0.0052
	CHANNELS 6 Xposition Yposition Zposition Xrotation Yrotation Zrotation
	JOINT Abdomen
	{
		OFFSET 0 -0.047353 -0.05
		CHANNELS 3 Xrotation Zrotation Yrotation
		JOINT Chest
		{
			OFFSET 0 0.132153 0.007439
			CHANNELS 3 Xrotation Zrotation Yrotation
			JOINT Neck
			{
				OFFSET 0 0.3078 0.006161
				CHANNELS 3 Xrotation Zrotation Yrotation
				JOINT Head_comp
				{
					OFFSET 0 0.0884 0.013
					CHANNELS 3 Xrotation Yrotation Zrotation
					End Site
					{
						OFFSET -0 0.156 0.0624
					}
				}
			}
			JOINT Left_Collar
			{
				OFFSET 0.02282 0.250342 0.017193
				CHANNELS 2 Yrotation Zrotation
				JOINT Left_Shoulder
				{
					OFFSET 0.15421 0 0
					CHANNELS 3 Xrotation Yrotation Zrotation
					JOINT Left_Forearm
					{
						OFFSET 0.265212 0 0
						CHANNELS 2 Yrotation Xrotation
						JOINT Left_Hand
						{
							OFFSET 0.27571 0 0
							CHANNELS 2 Zrotation Yrotation
							JOINT L1ProxPhalanx
							{
								OFFSET 0.014142 0.001733 0.014142
								CHANNELS 3 Yrotation Zrotation Xrotation
								JOINT L1MidPhalanx
								{
									OFFSET 0.04 0 0
									CHANNELS 1 Zrotation
									JOINT L1DistPhalanx
									{
										OFFSET 0.035 0 0
										CHANNELS 1 Zrotation
										End Site
										{
											OFFSET 0.029 -0 -0
										}
									}
								}
							}
							JOINT L2ProxPhalanx
							{
								OFFSET 0.0821037 0.001578 0.0219996
								CHANNELS 2 Yrotation Zrotation
								JOINT L2MidPhalanx
								{
									OFFSET 0.04 0 0
									CHANNELS 1 Zrotation
									JOINT L2DistPhalanx
									{
										OFFSET 0.028 0 0
										CHANNELS 1 Zrotation
										End Site
										{
											OFFSET 0.02 -0 -0
										}
									}
								}
							}
							JOINT L3ProxPhalanx
							{
								OFFSET 0.083 0 0
								CHANNELS 2 Yrotation Zrotation
								JOINT L3MidPhalanx
								{
									OFFSET 0.053 0 0
									CHANNELS 1 Zrotation
									JOINT L3DistPhalanx
									{
										OFFSET 0.03 0 0
										CHANNELS 1 Zrotation
										End Site
										{
											OFFSET 0.023 -0 -0
										}
									}
								}
							}
							JOINT L4ProxPhalanx
							{
								OFFSET 0.077274 -0.000761 -0.0207055
								CHANNELS 2 Yrotation Zrotation
								JOINT L4MidPhalanx
								{
									OFFSET 0.05 0 0
									CHANNELS 1 Zrotation
									JOINT L4DistPhalanx
									{
										OFFSET 0.03 0 0
										CHANNELS 1 Zrotation
										End Site
										{
											OFFSET 0.023 -0 -0
										}
									}
								}
							}
							JOINT L5ProxPhalanx
							{
								OFFSET 0.0675499 -0.001644 -0.039
								CHANNELS 2 Yrotation Zrotation
								JOINT L5MidPhalanx
								{
									OFFSET 0.04 0 0
									CHANNELS 1 Zrotation
									JOINT L5DistPhalanx
									{
										OFFSET 0.021 0 0
										CHANNELS 1 Zrotation
										End Site
										{
											OFFSET 0.022 -0 -0
										}
									}
								}
							}
						}
					}
				}
			}
			JOINT Right_Collar
			{
				OFFSET -0.02282 0.250342 0.017193
				CHANNELS 2 Yrotation Zrotation
				JOINT Right_Shoulder
				{
					OFFSET -0.15421 0 0
					CHANNELS 3 Xrotation Yrotation Zrotation
					JOINT Right_Forearm
					{
						OFFSET -0.265212 0 0
						CHANNELS 2 Yrotation Xrotation
						JOINT Right_Hand
						{
							OFFSET -0.27571 3e-006 0
							CHANNELS 2 Zrotation Yrotation
							JOINT R1ProxPhalanx
							{
								OFFSET -0.014142 0.001733 0.014142
								CHANNELS 3 Yrotation Zrotation Xrotation
								JOINT R1MidPhalanx
								{
									OFFSET -0.04 0 0
									CHANNELS 1 Zrotation
									JOINT R1DistPhalanx
									{
										OFFSET -0.035 0 0
										CHANNELS 1 Zrotation
										End Site
										{
											OFFSET -0.029 -0 -0
										}
									}
								}
							}
							JOINT R2ProxPhalanx
							{
								OFFSET -0.0821037 0.001578 0.0219996
								CHANNELS 2 Yrotation Zrotation
								JOINT R2MidPhalanx
								{
									OFFSET -0.04 0 0
									CHANNELS 1 Zrotation
									JOINT R2DistPhalanx
									{
										OFFSET -0.028 0 0
										CHANNELS 1 Zrotation
										End Site
										{
											OFFSET -0.02 -0 -0
										}
									}
								}
							}
							JOINT R3ProxPhalanx
							{
								OFFSET -0.083 0 0
								CHANNELS 2 Yrotation Zrotation
								JOINT R3MidPhalanx
								{
									OFFSET -0.053 0 0
									CHANNELS 1 Zrotation
									JOINT R3DistPhalanx
									{
										OFFSET -0.03 0 0
										CHANNELS 1 Zrotation
										End Site
										{
											OFFSET -0.023 -0 -0
										}
									}
								}
							}
							JOINT R4ProxPhalanx
							{
								OFFSET -0.077274 -0.000761 -0.0207055
								CHANNELS 2 Yrotation Zrotation
								JOINT R4MidPhalanx
								{
									OFFSET -0.05 0 0
									CHANNELS 1 Zrotation
									JOINT R4DistPhalanx
									{
										OFFSET -0.03 0 0
										CHANNELS 1 Zrotation
										End Site
										{
											OFFSET -0.023 -0 -0
										}
									}
								}
							}
							JOINT R5ProxPhalanx
							{
								OFFSET -0.0675499 -0.001644 -0.039
								CHANNELS 2 Yrotation Zrotation
								JOINT R5MidPhalanx
								{
									OFFSET -0.04 0 0
									CHANNELS 1 Zrotation
									JOINT R5DistPhalanx
									{
										OFFSET -0.021 0 0
										CHANNELS 1 Zrotation
										End Site
										{
											OFFSET -0.022 -0 -0
										}
									}
								}
							}
						}
					}
				}
			}
		}
	}
	JOINT Left_Thigh
	{
		OFFSET 0.1118 -0.1612 -0.0442
		CHANNELS 3 Xrotation Zrotation Yrotation
		JOINT Left_Shin
		{
			OFFSET 0 -0.477856 0
			CHANNELS 1 Xrotation
			JOINT Left_Foot
			{
				OFFSET 0 -0.431952 0
				CHANNELS 2 Xrotation Zrotation
				JOINT Left_Toe
				{
					OFFSET 0 -0.0442 0.119
					CHANNELS 1 Xrotation
					End Site
					{
						OFFSET -0 -0 0.07
					}
				}
			}
		}
	}
	JOINT Right_Thigh
	{
		OFFSET -0.1118 -0.1612 -0.0442
		CHANNELS 3 Xrotation Zrotation Yrotation
		JOINT Right_Shin
		{
			OFFSET 0 -0.477856 0
			CHANNELS 1 Xrotation
			JOINT Right_Foot
			{
				OFFSET 0 -0.431952 0
				CHANNELS 2 Xrotation Zrotation
				JOINT Right_Toe
				{
					OFFSET 0 -0.0442 0.119
					CHANNELS 1 Xrotation
					End Site
					{
						OFFSET -0 -0 0.07
					}
				}
			}
		}
	}
}
MOTION
Frames: 7
Frame Time: 0.009975
-0.0959266 -0.0601306 0.0385741 -5.55545e-012 -3.57237e-009 -5.11011e-006 0 -0 0 0 -0 0 0 -0 0 -0.712124 0.275013 -1.57674e-011 -4.42891 -26.1042 -3.61987 -37.5996 -48.2221 -61.6428 7.86944 11.0267 8.48532 -77.1901 18.4819 81.4917 -17.8646 -22.7564 6.73452 -2.64025 -17.0533 -8.83389 5.81515 -5.61499 -8.67382 -3.27515 3.42504 -16.0333 3.81817 -2.48034 2.18494 -40.3817 29.981 4.74834 5.0023 22.7856 -8.73771 21.4541 36.1328 61.172 3.51526 4.15876 -1.20504 68.2937 -1.97012 82.4533 17.4266 12.8245 1.63459 4.32129 15.6686 9.83951 -2.76783 11.406 9.61919 10.3087 -1.54576 23.631 3.58266 -1.37342 -2.30598 38.508 -16.8246 -9.0657 -0.0382337 -0.99968 0.00066746 0.0240216 0.0142063 0.999686 0 -0.0268272 -0.99968 0.000468452 1.70755e-006 0.0268214 0.999686 0 
-0.0960381 -0.0601286 0.0390026 -1.0508e-011 -1.2011e-009 -5.1101e-006 0 -0 0 0 -0 0 0 -0 0 -0.712147 0.275336 -1.74891e-011 -4.34538 -25.6878 -2.63274 -37.011 -48.1868 -62.8449 7.72103 10.8188 8.3253 -76.1154 17.1933 81.3852 -17.5161 -22.4768 6.37893 -3.00776 -17.4336 -8.9583 5.64324 -6.11748 -8.92831 -3.66931 3.5741 -16.1926 2.69949 -2.92881 2.58816 -39.7975 28.1057 3.62598 4.90662 22.4256 -7.80457 20.8763 36.4917 62.4341 3.44802 4.07921 -1.18199 67.4864 -1.17277 82.2204 17.661 13.24 1.94003 4.69089 16.0239 10.1001 -2.69421 11.6993 10.2308 10.7826 -1.73424 23.8191 4.34397 -0.704828 -2.45293 38.1949 -15.4421 -8.0261 -0.0112419 -0.992658 0.000195189 0.0240216 -0.0127814 0.992663 0 0.000164587 -0.992658 -2.42159e-006 8.62311e-007 -0.000165425 0.992663 0 
-0.0961536 -0.0601267 0.0394457 -5.11835e-012 1.25502e-009 -5.11009e-006 0 -0 0 0 -0 0 0 -0 0 -0.712172 0.275671 -1.92359e-011 -4.25916 -25.2578 -1.63809 -36.4058 -48.1712 -64.0447 7.56784 10.6041 8.16011 -75.0407 15.9048 81.2787 -17.1677 -22.1972 6.02334 -3.37528 -17.8139 -9.08271 5.47134 -6.61998 -9.18281 -4.06346 3.72316 -16.3519 1.5808 -3.37728 2.99137 -39.2134 26.2304 2.50361 4.80799 22.0544 -6.8472 20.2998 36.8693 63.6906 3.37871 3.99722 -1.15824 66.679 -0.375413 81.9875 17.8954 13.6555 2.24546 5.06048 16.3791 10.3606 -2.62059 11.9927 10.8425 11.2564 -1.92271 24.0073 5.10528 -0.0362318 -2.59989 37.8818 -14.0596 -6.98651 0.016663 -0.985388 -0.000286104 0.0240216 -0.0406822 0.985393 0 0.0280695 -0.985388 -0.000482266 1.18931e-006 -0.0280665 0.985393 0 
-0.0962726 -0.060125 0.0399022 1.28361e-011 3.78991e-009 -5.11007e-006 0 -0 0 0 -0 0 0 -0 0 -0.712199 0.276018 -2.10002e-011 -4.17042 -24.8148 -0.638508 -35.7864 -48.1775 -65.237 7.41016 10.3832 7.9901 -73.966 14.6163 81.1722 -16.8192 -21.9176 5.66775 -3.74279 -18.1942 -9.20713 5.29943 -7.12247 -9.4373 -4.45762 3.87222 -16.5111 0.462114 -3.82575 3.39459 -38.6292 24.3551 1.38124 4.70662 21.6727 -5.8678 19.7279 37.2664 64.9363 3.30747 3.91294 -1.13381 65.8716 0.421942 81.7546 18.1299 14.0711 2.5509 5.43007 16.7344 10.6212 -2.54697 12.2861 11.4541 11.7303 -2.11119 24.1955 5.86659 0.632364 -2.74684 37.5686 -12.6771 -5.94692 0.0454168 -0.977892 -0.000774631 0.0240216 -0.0694319 0.977898 0 0.0568233 -0.977892 -0.0009693 2.41484e-006 -0.0568171 0.977898 0 
-0.0963948 -0.0601235 0.0403713 -1.08285e-011 6.39811e-009 -5.11006e-006 0 -0 0 0 -0 0 0 -0 0 -0.712227 0.276375 -2.27754e-011 -4.07933 -24.3599 0.363862 -35.1551 -48.2076 -66.4169 7.2483 10.1564 7.81556 -72.8912 13.3278 81.0657 -16.4708 -21.638 5.31217 -4.1103 -18.5745 -9.33154 5.12752 -7.62497 -9.69179 -4.85178 4.02128 -16.6704 -0.656573 -4.27421 3.79781 -38.045 22.4798 0.258878 4.60267 21.2811 -4.86835 19.1639 37.6837 66.1663 3.23443 3.82652 -1.10877 65.0642 1.2193 81.5217 18.3643 14.4866 2.85634 5.79967 17.0896 10.8818 -2.47335 12.5795 12.0657 12.2042 -2.29966 24.3836 6.6279 1.30096 -2.89379 37.2555 -11.2946 -4.90733 0.0749615 -0.970193 -0.00126876 0.0240216 -0.0989724 0.970199 0 0.086368 -0.970192 -0.0014619 1.70755e-006 -0.0863573 0.970199 0 
-0.09652 -0.0601223 0.040852 -4.64132e-012 9.07464e-009 -5.11004e-006 0 -0 0 0 -0 0 0 -0 0 -0.712256 0.276741 -2.45605e-011 -3.98602 -23.8936 1.36721 -34.5136 -48.2629 -67.5805 7.0825 9.92405 7.63679 -71.8165 12.0392 80.9591 -16.1224 -21.3584 4.95658 -4.47782 -18.9548 -9.45595 4.95562 -8.12746 -9.94629 -5.24594 4.17033 -16.8297 -1.77526 -4.72268 4.20103 -37.4608 20.6046 -0.863488 4.49631 20.8804 -3.85068 18.6104 38.1218 67.3766 3.15969 3.7381 -1.08315 64.2568 2.01665 81.2888 18.5987 14.9021 3.16178 6.16926 17.4449 11.1423 -2.39973 12.8728 12.6774 12.6781 -2.48814 24.5718 7.38922 1.96955 -3.04074 36.9424 -9.91205 -3.86773 0.105244 -0.962309 -0.00176701 0.0240216 -0.12925 0.962315 0 0.11665 -0.962308 -0.00195858 1.70755e-006 -0.116636 0.962315 0 
-0.0966478 -0.0601212 0.0413438 -1.99086e-013 1.31658e-008 -5.11002e-006 0 -0 0 0 -0 0 0 -0 0 -0.712287 0.277116 -2.63503e-011 -3.89064 -23.4168 2.36998 -33.8635 -48.3448 -68.7241 6.91304 9.6866 7.45407 -70.7418 10.7507 80.8526 -15.7739 -21.0788 4.60099 -4.84533 -19.3351 -9.58037 4.78371 -8.62995 -10.2008 -5.64009 4.31939 -16.989 -2.89395 -5.17115 4.60425 -36.8766 18.7293 -1.98585 4.38772 20.4711 -2.81649 18.0698 38.581 68.5636 3.08337 3.64781 -1.05699 63.4494 2.81401 81.0559 18.8332 15.3177 3.46722 6.53886 17.8001 11.4029 -2.32611 13.1662 13.289 13.1519 -2.67661 24.7599 8.15053 2.63815 -3.1877 36.6292 -8.52955 -2.82814 0.136214 -0.954259 -0.00226799 0.0240216 -0.160217 0.954266 0 0.14762 -0.954258 -0.00245795 2.41484e-006 -0.147602 0.954266 0 
